<?xml version="1.0" encoding="utf-8"?>
<!-- Generator: Adobe Illustrator 26.0.0, SVG Export Plug-In . SVG Version: 6.00 Build 0)  -->
<svg version="1.1" id="Layer_1" xmlns="http://www.w3.org/2000/svg" xmlns:xlink="http://www.w3.org/1999/xlink" x="0px" y="0px"
	 viewBox="0 0 595.28 841.89" style="enable-background:new 0 0 595.28 841.89;" xml:space="preserve">
<style type="text/css">
	.st0{fill:#FEFEFE;}
	.st1{fill:#4CAE50;}
</style>
<g>
	<path class="st0" d="M532.3,436.59c0,71.65-0.03,143.29,0.09,214.94c0.01,3.13-0.61,3.75-3.75,3.75
		c-153.96-0.1-307.93-0.1-461.89,0c-3.13,0-3.75-0.61-3.75-3.74c0.1-153.96,0.1-307.93,0-461.89c0-3.13,0.61-3.75,3.74-3.75
		c71.65,0.11,143.29,0.09,214.94,0.09c0.06,1.62-1.26,1.99-2.35,2.38c-16.65,5.93-22.73,18.65-22.75,35.28
		c-0.02,15.24-0.01,30.48-0.01,45.73c0,33.08,0,66.15,0,99.23c0,1.98,0.06,3.96-0.19,5.94c-0.29,2.29-1.57,3.53-3.85,3.82
		c-2.13,0.27-4.26,0.2-6.39,0.2c-47.1,0.01-94.2,0.02-141.3-0.02c-4.44,0-8.82,0.32-13.2,0.98c-14.8,2.24-25.61,14.11-26.16,29.08
		c-0.28,7.61-0.28,15.25,0,22.86c0.57,15.29,11.34,27.09,26.4,29.32c4.38,0.65,8.77,0.95,13.21,0.95
		c47.25-0.03,94.5-0.02,141.75-0.02c9.47,0,9.72,0.25,9.72,9.73c0.01,47.25,0.01,94.5-0.02,141.75c0,4.43,0.3,8.82,0.95,13.2
		c2.2,14.87,13.86,25.68,28.89,26.37c7.91,0.36,15.86,0.36,23.77,0c14.71-0.67,26.38-11.53,28.6-26.16
		c0.66-4.38,0.98-8.77,0.98-13.2c-0.03-47.25-0.02-94.5-0.02-141.75c0-9.73,0.22-9.94,10-9.94c47.1,0,94.2-0.01,141.3,0.02
		c4.43,0,8.82-0.28,13.21-0.91c12.14-1.76,20.18-8.59,24.9-19.7C529.84,439.41,529.72,437.01,532.3,436.59z"/>
	<path class="st1" d="M532.3,436.59c-2.12,4.65-3.4,9.66-6.73,13.78c-7.29,9.03-16.87,12.44-28.16,12.43
		c-50.29-0.06-100.58,0.03-150.88-0.12c-4.45-0.01-5.88,0.85-5.86,5.66c0.2,50.14,0.1,100.28,0.14,150.42
		c0.01,8.93-1.7,17.22-7.73,24.21c-5.65,6.55-12.77,10.58-21.31,11.08c-9.11,0.53-18.33,0.71-27.41-0.02
		c-17.15-1.36-28.78-15.37-28.86-34.05c-0.1-22.86-0.02-45.72-0.02-68.58c0-27.89-0.09-55.78,0.1-83.67
		c0.03-4.04-1.02-5.07-5.06-5.06c-50.44,0.14-100.89,0.09-151.33,0.1c-7.28,0-14.27-1.04-20.49-5.18
		c-7.89-5.25-13.12-12.48-14.19-21.91c-1.17-10.29-1.44-20.78,0.02-31c2.42-16.88,15.51-27.1,33.61-27.18
		c21.95-0.1,43.89-0.02,65.84-0.02c28.65,0,57.3-0.14,85.95,0.13c4.85,0.05,5.66-1.47,5.64-5.88
		c-0.15-50.29-0.12-100.58-0.08-150.88c0.01-17.98,8.17-28.94,25.13-34.1c0.39-0.12,0.71-0.51,1.06-0.78c10.67,0,21.34,0,32.01,0
		c20.06,1.34,28.85,19.5,28.85,36.43c0,18.28,0,36.56,0,54.84c0,30.62-0.01,61.24,0.01,91.85c0,6.52,0.1,6.61,6.64,6.61
		c47.68,0.01,95.36,0.01,143.04,0c3.51,0,6.99,0.15,10.47,0.66c17.73,2.59,26.59,10.99,29.59,28.2
		C532.3,415.25,532.3,425.92,532.3,436.59z"/>
	<path class="st0" d="M532.3,404.58c-2.08-7.21-4.94-13.93-10.8-19.04c-7.07-6.16-15.41-8.09-24.53-8.08
		c-50.1,0.06-100.2,0.03-150.3,0.03c-5.86,0-5.87,0-5.87-5.87c0-50.1-0.06-100.2,0.04-150.3c0.03-13.53-4.67-24.29-16.62-31.37
		c-3.29-1.95-7.07-2.49-10.52-3.96c71.65,0,143.29,0.03,214.94-0.09c3.13,0,3.75,0.61,3.75,3.75
		C532.27,261.28,532.3,332.93,532.3,404.58z"/>
</g>
</svg>
